<svg width="302" height="64" viewBox="0 0 302 64" fill="none" xmlns="http://www.w3.org/2000/svg">
<path d="M0 40.41C0 39.3055 0.895431 38.41 2 38.41H55.2C56.3046 38.41 57.2 39.3055 57.2 40.41V64H0V40.41Z" fill="white" fill-opacity="0.2"/>
<path d="M61.2 27.61C61.2 26.5054 62.0954 25.61 63.2 25.61H116.4C117.505 25.61 118.4 26.5054 118.4 27.61V64H61.2V27.61Z" fill="white" fill-opacity="0.2"/>
<path d="M122.4 30.8101C122.4 29.7055 123.295 28.8101 124.4 28.8101H177.6C178.705 28.8101 179.6 29.7055 179.6 30.8101V64.0001H122.4V30.8101Z" fill="white" fill-opacity="0.2"/>
<path d="M183.6 14.8101C183.6 13.7055 184.495 12.8101 185.6 12.8101H238.8C239.905 12.8101 240.8 13.7055 240.8 14.8101V64.0001H183.6V14.8101Z" fill="white" fill-opacity="0.2"/>
<path d="M244.8 2C244.8 0.895431 245.695 0 246.8 0H300C301.105 0 302 0.895431 302 2V64H244.8V2Z" fill="white" fill-opacity="0.4"/>
</svg>
