<svg width="150" height="134" viewBox="0 0 150 134" fill="none" xmlns="http://www.w3.org/2000/svg">
<g opacity="0.05">
<path d="M25 116.667V125C25 127.361 24.2014 129.34 22.6042 130.938C21.0069 132.535 19.0278 133.333 16.6667 133.333H8.33333C5.97222 133.333 3.99306 132.535 2.39583 130.938C0.798611 129.34 0 127.361 0 125V58.3333L17.5 8.33333C18.3333 5.83333 19.8264 3.81944 21.9792 2.29167C24.1319 0.763889 26.5278 0 29.1667 0H120.833C123.472 0 125.868 0.763889 128.021 2.29167C130.174 3.81944 131.667 5.83333 132.5 8.33333L150 58.3333V125C150 127.361 149.201 129.34 147.604 130.938C146.007 132.535 144.028 133.333 141.667 133.333H133.333C130.972 133.333 128.993 132.535 127.396 130.938C125.799 129.34 125 127.361 125 125V116.667H25ZM23.3333 41.6667H126.667L117.917 16.6667H32.0833L23.3333 41.6667ZM16.6667 58.3333V100V58.3333ZM37.5 91.6667C40.9722 91.6667 43.9236 90.4514 46.3542 88.0208C48.7847 85.5903 50 82.6389 50 79.1667C50 75.6944 48.7847 72.7431 46.3542 70.3125C43.9236 67.8819 40.9722 66.6667 37.5 66.6667C34.0278 66.6667 31.0764 67.8819 28.6458 70.3125C26.2153 72.7431 25 75.6944 25 79.1667C25 82.6389 26.2153 85.5903 28.6458 88.0208C31.0764 90.4514 34.0278 91.6667 37.5 91.6667ZM112.5 91.6667C115.972 91.6667 118.924 90.4514 121.354 88.0208C123.785 85.5903 125 82.6389 125 79.1667C125 75.6944 123.785 72.7431 121.354 70.3125C118.924 67.8819 115.972 66.6667 112.5 66.6667C109.028 66.6667 106.076 67.8819 103.646 70.3125C101.215 72.7431 100 75.6944 100 79.1667C100 82.6389 101.215 85.5903 103.646 88.0208C106.076 90.4514 109.028 91.6667 112.5 91.6667ZM16.6667 100H133.333V58.3333H16.6667V100Z" fill="#191C1E"/>
</g>
</svg>
